<svg width="1920" height="962" viewBox="0 0 1920 962" fill="none" xmlns="http://www.w3.org/2000/svg">
<rect x="-3" y="0.999268" width="1920" height="961" fill="#130C3A"/>
<path d="M419.752 53.1325C405.036 32.9407 382.902 19.4218 358.219 15.5496C333.535 11.6775 308.325 17.7693 288.133 32.485C267.941 47.2008 254.422 69.3349 250.55 94.0182C246.678 118.701 252.77 143.912 267.486 164.104L343.619 108.618L419.752 53.1325Z" fill="#FF9D0A"/>
<path d="M1423.4 0.997199C1423.5 25.9822 1433.53 49.9021 1451.27 67.4949C1469.01 85.0878 1493.01 94.9124 1518 94.8075C1542.98 94.7026 1566.9 84.6767 1584.49 66.9355C1602.09 49.1943 1611.91 25.1909 1611.81 0.205993L1517.6 0.601588L1423.4 0.997199Z" fill="#0555FF"/>
<circle cx="176.334" cy="357.999" r="4.21763" transform="rotate(-90.3282 176.334 357.999)" fill="white" fill-opacity="0.05"/>
<circle cx="147.235" cy="358.047" r="4.21763" transform="rotate(-90.3282 147.235 358.047)" fill="white" fill-opacity="0.05"/>
<circle cx="176.334" cy="62.7649" r="4.21763" transform="rotate(-90.3282 176.334 62.7649)" fill="white" fill-opacity="0.05"/>
<circle cx="147.235" cy="62.8135" r="4.21763" transform="rotate(-90.3282 147.235 62.8135)" fill="white" fill-opacity="0.05"/>
<circle cx="176.334" cy="33.2412" r="4.21763" transform="rotate(-90.3282 176.334 33.2412)" fill="white" fill-opacity="0.05"/>
<circle cx="147.235" cy="33.2898" r="4.21763" transform="rotate(-90.3282 147.235 33.2898)" fill="white" fill-opacity="0.05"/>
<circle cx="176.758" cy="328.524" r="4.21763" transform="rotate(-90.3282 176.758 328.524)" fill="white" fill-opacity="0.05"/>
<circle cx="147.659" cy="328.572" r="4.21763" transform="rotate(-90.3282 147.659 328.572)" fill="white" fill-opacity="0.05"/>
<circle cx="176.758" cy="299" r="4.21763" transform="rotate(-90.3282 176.758 299)" fill="white" fill-opacity="0.05"/>
<circle cx="147.659" cy="299.049" r="4.21763" transform="rotate(-90.3282 147.659 299.049)" fill="white" fill-opacity="0.05"/>
<circle cx="176.758" cy="269.477" r="4.21763" transform="rotate(-90.3282 176.758 269.477)" fill="white" fill-opacity="0.05"/>
<circle cx="147.659" cy="269.526" r="4.21763" transform="rotate(-90.3282 147.659 269.526)" fill="white" fill-opacity="0.05"/>
<circle cx="176.758" cy="239.953" r="4.21763" transform="rotate(-90.3282 176.758 239.953)" fill="white" fill-opacity="0.05"/>
<circle cx="147.659" cy="240.002" r="4.21763" transform="rotate(-90.3282 147.659 240.002)" fill="white" fill-opacity="0.05"/>
<circle cx="176.758" cy="210.43" r="4.21763" transform="rotate(-90.3282 176.758 210.43)" fill="white" fill-opacity="0.05"/>
<circle cx="147.659" cy="210.478" r="4.21763" transform="rotate(-90.3282 147.659 210.478)" fill="white" fill-opacity="0.05"/>
<circle cx="176.758" cy="180.907" r="4.21763" transform="rotate(-90.3282 176.758 180.907)" fill="white" fill-opacity="0.05"/>
<circle cx="147.659" cy="180.955" r="4.21763" transform="rotate(-90.3282 147.659 180.955)" fill="white" fill-opacity="0.05"/>
<circle cx="176.758" cy="151.383" r="4.21763" transform="rotate(-90.3282 176.758 151.383)" fill="white" fill-opacity="0.05"/>
<circle cx="147.659" cy="151.432" r="4.21763" transform="rotate(-90.3282 147.659 151.432)" fill="white" fill-opacity="0.05"/>
<circle cx="176.758" cy="121.86" r="4.21763" transform="rotate(-90.3282 176.758 121.86)" fill="white" fill-opacity="0.05"/>
<circle cx="147.659" cy="121.908" r="4.21763" transform="rotate(-90.3282 147.659 121.908)" fill="white" fill-opacity="0.05"/>
<circle cx="176.758" cy="92.3357" r="4.21763" transform="rotate(-90.3282 176.758 92.3357)" fill="white" fill-opacity="0.05"/>
<circle cx="147.659" cy="92.3843" r="4.21763" transform="rotate(-90.3282 147.659 92.3843)" fill="white" fill-opacity="0.05"/>
<circle cx="64.9912" cy="358.047" r="4.21763" transform="rotate(-90.3282 64.9912 358.047)" fill="white" fill-opacity="0.05"/>
<circle cx="35.8918" cy="358.096" r="4.21763" transform="rotate(-90.3282 35.8918 358.096)" fill="white" fill-opacity="0.05"/>
<circle cx="64.9912" cy="62.8135" r="4.21763" transform="rotate(-90.3282 64.9912 62.8135)" fill="white" fill-opacity="0.05"/>
<circle cx="35.8918" cy="62.862" r="4.21763" transform="rotate(-90.3282 35.8918 62.862)" fill="white" fill-opacity="0.05"/>
<circle cx="64.9912" cy="33.2893" r="4.21763" transform="rotate(-90.3282 64.9912 33.2893)" fill="white" fill-opacity="0.05"/>
<circle cx="35.8918" cy="33.3376" r="4.21763" transform="rotate(-90.3282 35.8918 33.3376)" fill="white" fill-opacity="0.05"/>
<circle cx="65.4151" cy="328.572" r="4.21763" transform="rotate(-90.3282 65.4151 328.572)" fill="white" fill-opacity="0.05"/>
<circle cx="36.3157" cy="328.621" r="4.21763" transform="rotate(-90.3282 36.3157 328.621)" fill="white" fill-opacity="0.05"/>
<circle cx="65.4151" cy="299.048" r="4.21763" transform="rotate(-90.3282 65.4151 299.048)" fill="white" fill-opacity="0.05"/>
<circle cx="36.3157" cy="299.096" r="4.21763" transform="rotate(-90.3282 36.3157 299.096)" fill="white" fill-opacity="0.05"/>
<circle cx="65.4151" cy="269.526" r="4.21763" transform="rotate(-90.3282 65.4151 269.526)" fill="white" fill-opacity="0.05"/>
<circle cx="36.3157" cy="269.574" r="4.21763" transform="rotate(-90.3282 36.3157 269.574)" fill="white" fill-opacity="0.05"/>
<circle cx="65.4151" cy="240.002" r="4.21763" transform="rotate(-90.3282 65.4151 240.002)" fill="white" fill-opacity="0.05"/>
<circle cx="36.3157" cy="240.051" r="4.21763" transform="rotate(-90.3282 36.3157 240.051)" fill="white" fill-opacity="0.05"/>
<circle cx="65.4151" cy="210.478" r="4.21763" transform="rotate(-90.3282 65.4151 210.478)" fill="white" fill-opacity="0.05"/>
<circle cx="36.3157" cy="210.526" r="4.21763" transform="rotate(-90.3282 36.3157 210.526)" fill="white" fill-opacity="0.05"/>
<circle cx="65.4151" cy="180.955" r="4.21763" transform="rotate(-90.3282 65.4151 180.955)" fill="white" fill-opacity="0.05"/>
<circle cx="36.3157" cy="181.004" r="4.21763" transform="rotate(-90.3282 36.3157 181.004)" fill="white" fill-opacity="0.05"/>
<circle cx="65.4151" cy="151.432" r="4.21763" transform="rotate(-90.3282 65.4151 151.432)" fill="white" fill-opacity="0.05"/>
<circle cx="36.3157" cy="151.48" r="4.21763" transform="rotate(-90.3282 36.3157 151.48)" fill="white" fill-opacity="0.05"/>
<circle cx="65.4151" cy="121.907" r="4.21763" transform="rotate(-90.3282 65.4151 121.907)" fill="white" fill-opacity="0.05"/>
<circle cx="36.3157" cy="121.956" r="4.21763" transform="rotate(-90.3282 36.3157 121.956)" fill="white" fill-opacity="0.05"/>
<circle cx="65.4151" cy="92.3843" r="4.21763" transform="rotate(-90.3282 65.4151 92.3843)" fill="white" fill-opacity="0.05"/>
<circle cx="36.3157" cy="92.4328" r="4.21763" transform="rotate(-90.3282 36.3157 92.4328)" fill="white" fill-opacity="0.05"/>
<circle cx="121.929" cy="358.047" r="4.21763" transform="rotate(-90.3282 121.929 358.047)" fill="white" fill-opacity="0.05"/>
<circle cx="92.8298" cy="358.096" r="4.21763" transform="rotate(-90.3282 92.8298 358.096)" fill="white" fill-opacity="0.05"/>
<circle cx="121.929" cy="62.8135" r="4.21763" transform="rotate(-90.3282 121.929 62.8135)" fill="white" fill-opacity="0.05"/>
<circle cx="92.8298" cy="62.862" r="4.21763" transform="rotate(-90.3282 92.8298 62.862)" fill="white" fill-opacity="0.05"/>
<circle cx="121.929" cy="33.2893" r="4.21763" transform="rotate(-90.3282 121.929 33.2893)" fill="white" fill-opacity="0.05"/>
<circle cx="92.8298" cy="33.3376" r="4.21763" transform="rotate(-90.3282 92.8298 33.3376)" fill="white" fill-opacity="0.05"/>
<circle cx="122.353" cy="328.572" r="4.21763" transform="rotate(-90.3282 122.353 328.572)" fill="white" fill-opacity="0.05"/>
<circle cx="93.2538" cy="328.621" r="4.21763" transform="rotate(-90.3282 93.2538 328.621)" fill="white" fill-opacity="0.05"/>
<circle cx="122.353" cy="299.048" r="4.21763" transform="rotate(-90.3282 122.353 299.048)" fill="white" fill-opacity="0.05"/>
<circle cx="93.2537" cy="299.096" r="4.21763" transform="rotate(-90.3282 93.2537 299.096)" fill="white" fill-opacity="0.05"/>
<circle cx="122.353" cy="269.526" r="4.21763" transform="rotate(-90.3282 122.353 269.526)" fill="white" fill-opacity="0.05"/>
<circle cx="93.2538" cy="269.574" r="4.21763" transform="rotate(-90.3282 93.2538 269.574)" fill="white" fill-opacity="0.05"/>
<circle cx="122.353" cy="240.002" r="4.21763" transform="rotate(-90.3282 122.353 240.002)" fill="white" fill-opacity="0.05"/>
<circle cx="93.2538" cy="240.051" r="4.21763" transform="rotate(-90.3282 93.2538 240.051)" fill="white" fill-opacity="0.05"/>
<circle cx="122.353" cy="210.478" r="4.21763" transform="rotate(-90.3282 122.353 210.478)" fill="white" fill-opacity="0.05"/>
<circle cx="93.2537" cy="210.526" r="4.21763" transform="rotate(-90.3282 93.2537 210.526)" fill="white" fill-opacity="0.05"/>
<circle cx="122.353" cy="180.955" r="4.21763" transform="rotate(-90.3282 122.353 180.955)" fill="white" fill-opacity="0.05"/>
<circle cx="93.2538" cy="181.004" r="4.21763" transform="rotate(-90.3282 93.2538 181.004)" fill="white" fill-opacity="0.05"/>
<circle cx="122.353" cy="151.432" r="4.21763" transform="rotate(-90.3282 122.353 151.432)" fill="white" fill-opacity="0.05"/>
<circle cx="93.2538" cy="151.48" r="4.21763" transform="rotate(-90.3282 93.2538 151.48)" fill="white" fill-opacity="0.05"/>
<circle cx="122.353" cy="121.907" r="4.21763" transform="rotate(-90.3282 122.353 121.907)" fill="white" fill-opacity="0.05"/>
<circle cx="93.2537" cy="121.956" r="4.21763" transform="rotate(-90.3282 93.2537 121.956)" fill="white" fill-opacity="0.05"/>
<circle cx="122.353" cy="92.3843" r="4.21763" transform="rotate(-90.3282 122.353 92.3843)" fill="white" fill-opacity="0.05"/>
<circle cx="93.2538" cy="92.4328" r="4.21763" transform="rotate(-90.3282 93.2538 92.4328)" fill="white" fill-opacity="0.05"/>
<circle cx="10.586" cy="358.096" r="4.21763" transform="rotate(-90.3282 10.586 358.096)" fill="white" fill-opacity="0.05"/>
<circle cx="10.586" cy="62.8613" r="4.21763" transform="rotate(-90.3282 10.586 62.8613)" fill="white" fill-opacity="0.05"/>
<circle cx="10.5859" cy="33.3376" r="4.21763" transform="rotate(-90.3282 10.5859 33.3376)" fill="white" fill-opacity="0.05"/>
<circle cx="11.0099" cy="328.62" r="4.21763" transform="rotate(-90.3282 11.0099 328.62)" fill="white" fill-opacity="0.05"/>
<circle cx="11.0099" cy="299.096" r="4.21763" transform="rotate(-90.3282 11.0099 299.096)" fill="white" fill-opacity="0.05"/>
<circle cx="11.0099" cy="269.574" r="4.21763" transform="rotate(-90.3282 11.0099 269.574)" fill="white" fill-opacity="0.05"/>
<circle cx="11.0099" cy="240.05" r="4.21763" transform="rotate(-90.3282 11.0099 240.05)" fill="white" fill-opacity="0.05"/>
<circle cx="11.0099" cy="210.526" r="4.21763" transform="rotate(-90.3282 11.0099 210.526)" fill="white" fill-opacity="0.05"/>
<circle cx="11.0099" cy="181.004" r="4.21763" transform="rotate(-90.3282 11.0099 181.004)" fill="white" fill-opacity="0.05"/>
<circle cx="11.0099" cy="151.48" r="4.21763" transform="rotate(-90.3282 11.0099 151.48)" fill="white" fill-opacity="0.05"/>
<circle cx="11.0099" cy="121.956" r="4.21763" transform="rotate(-90.3282 11.0099 121.956)" fill="white" fill-opacity="0.05"/>
<circle cx="11.0099" cy="92.4336" r="4.21763" transform="rotate(-90.3282 11.0099 92.4336)" fill="white" fill-opacity="0.05"/>
<circle cx="1904.5" cy="493.5" r="124.5" stroke="white" stroke-opacity="0.05" stroke-width="40"/>
</svg>
